<svg xmlns="http://www.w3.org/2000/svg" xmlns:xlink="http://www.w3.org/1999/xlink" viewBox="0 0 800.4 280.28"><defs><style>.cls-1{fill:none;}.cls-2{clip-path:url(#clip-path);}.cls-3{fill:url(#Paylia_Gradient);}.cls-4{fill:#dde1ef;}.cls-5{clip-path:url(#clip-path-2);}.cls-6{fill:url(#Paylia_Gradient-2);}.cls-7{clip-path:url(#clip-path-3);}.cls-8{clip-path:url(#clip-path-4);}.cls-9{fill:url(#Paylia_Gradient-4);}.cls-10{clip-path:url(#clip-path-5);}.cls-11{clip-path:url(#clip-path-6);}.cls-12{clip-path:url(#clip-path-7);}.cls-13{fill:url(#linear-gradient);}</style><clipPath id="clip-path"><path class="cls-1" d="M322.44,103.06a42.59,42.59,0,0,0-21.72-5.54A42,42,0,0,0,279.36,103a40.68,40.68,0,0,0-15,15,42.69,42.69,0,0,0-5.7,21.34V211a5.51,5.51,0,0,0,5.93,5.92,5.68,5.68,0,0,0,4.18-1.59,5.86,5.86,0,0,0,1.59-4.33V166.35a36.81,36.81,0,0,0,13.3,11.47,39.18,39.18,0,0,0,18.46,4.33,39.88,39.88,0,0,0,35.63-20.66,43.18,43.18,0,0,0,5.39-21.58,42.63,42.63,0,0,0-5.54-21.73A40.92,40.92,0,0,0,322.44,103.06Zm5.09,53a29.57,29.57,0,0,1-11,11.32,32.16,32.16,0,0,1-31.46,0,29,29,0,0,1-10.94-11.32,35.36,35.36,0,0,1,0-32.44,29.86,29.86,0,0,1,26.6-15.5,30.08,30.08,0,0,1,26.81,15.5,34.66,34.66,0,0,1,0,32.44Z"/></clipPath><linearGradient id="Paylia_Gradient" x1="258.62" y1="139.32" x2="800.4" y2="139.32" gradientUnits="userSpaceOnUse"><stop offset="0" stop-color="#9a3072"/><stop offset="1" stop-color="#2dc3f2"/></linearGradient><clipPath id="clip-path-2"><path class="cls-1" d="M441.66,103.06a41.91,41.91,0,0,0-21.5-5.54,42.36,42.36,0,0,0-21.58,5.54,40.82,40.82,0,0,0-15.11,15.12,42.53,42.53,0,0,0-5.55,21.73,43.19,43.19,0,0,0,5.4,21.58,39.88,39.88,0,0,0,35.62,20.66,38.57,38.57,0,0,0,19.83-5.09,37.62,37.62,0,0,0,11.78-10.76v9.32a5.51,5.51,0,0,0,1.67,4.18,6.49,6.49,0,0,0,8.51,0,5.54,5.54,0,0,0,1.67-4.18V139.91a43.64,43.64,0,0,0-5.7-21.73A41.08,41.08,0,0,0,441.66,103.06Zm5.17,53a29.78,29.78,0,0,1-10.95,11.32,30.76,30.76,0,0,1-42.46-11.32,34.06,34.06,0,0,1,0-32.44,31,31,0,0,1,11.09-11.32,31.52,31.52,0,0,1,31.37,0,30.58,30.58,0,0,1,10.95,11.32,34.66,34.66,0,0,1,0,32.44Z"/></clipPath><linearGradient id="Paylia_Gradient-2" x1="258.62" y1="139.32" x2="800.4" y2="139.32" xlink:href="#Paylia_Gradient"/><clipPath id="clip-path-3"><path class="cls-1" d="M622.74,169.84h-3.8c-2.74,0-5-1.36-6.76-4.1s-2.66-6.28-2.66-10.64V68.5a5.49,5.49,0,0,0-5.77-5.78A5.48,5.48,0,0,0,598,68.5v86.6a33,33,0,0,0,2.66,13.68,22,22,0,0,0,7.44,9.27,18.5,18.5,0,0,0,10.87,3.34h2a7.43,7.43,0,0,0,4.93-1.59,5.2,5.2,0,0,0,1.9-4.18,6.14,6.14,0,0,0-1.37-4.18A4.57,4.57,0,0,0,622.74,169.84Z"/></clipPath><clipPath id="clip-path-4"><path class="cls-1" d="M566.5,98.15c-3.35-1.42-5.77-.51-7.3,2.73l-28.27,62.33-29.61-62.48a5.26,5.26,0,0,0-3.05-3,5.49,5.49,0,0,0-4.25.38,5.6,5.6,0,0,0-3,3,5.31,5.31,0,0,0,.3,4.26l33.89,70.19a.44.44,0,0,0,.08.11l-15.12,33.32q-2.28,5,2.89,7.29a7.26,7.26,0,0,0,2.73.61q2.88,0,4.4-3.49l49.23-108.18C570.91,101.94,569.94,99.57,566.5,98.15Z"/></clipPath><linearGradient id="Paylia_Gradient-4" x1="258.62" y1="138.73" x2="800.4" y2="138.73" xlink:href="#Paylia_Gradient"/><clipPath id="clip-path-5"><path class="cls-1" d="M668.49,65.92a8.57,8.57,0,0,0-5.84,2.2,7.56,7.56,0,0,0-2.51,6,8.07,8.07,0,0,0,2.43,5.93,7.88,7.88,0,0,0,5.77,2.43,8.3,8.3,0,0,0,8.36-8.36,7.59,7.59,0,0,0-2.51-6A8.38,8.38,0,0,0,668.49,65.92Z"/></clipPath><clipPath id="clip-path-6"><path class="cls-1" d="M794.7,118.18a41.16,41.16,0,0,0-15-15.12,44.64,44.64,0,0,0-43.08,0,40.92,40.92,0,0,0-15.12,15.12,42.63,42.63,0,0,0-5.54,21.73,43.18,43.18,0,0,0,5.39,21.58,39.88,39.88,0,0,0,35.63,20.66,38.6,38.6,0,0,0,19.83-5.09,37.69,37.69,0,0,0,11.77-10.76v9.32a5.51,5.51,0,0,0,1.68,4.18,6.48,6.48,0,0,0,8.5,0,5.51,5.51,0,0,0,1.68-4.18V139.91A43.85,43.85,0,0,0,794.7,118.18Zm-9.88,37.91a29.69,29.69,0,0,1-10.94,11.32,30.76,30.76,0,0,1-42.46-11.32,34.06,34.06,0,0,1,0-32.44,30.8,30.8,0,0,1,11.09-11.32,31.52,31.52,0,0,1,31.37,0,30.48,30.48,0,0,1,10.94,11.32,34.66,34.66,0,0,1,0,32.44Z"/></clipPath><clipPath id="clip-path-7"><path class="cls-1" d="M668.49,98.28a5.49,5.49,0,0,0-5.92,5.92v71.27a5.49,5.49,0,0,0,5.92,5.92,5.66,5.66,0,0,0,4.18-1.59,5.84,5.84,0,0,0,1.6-4.33V104.2a5.84,5.84,0,0,0-1.6-4.33A5.66,5.66,0,0,0,668.49,98.28Z"/></clipPath><linearGradient id="linear-gradient" x1="301.68" y1="3278.58" x2="302.68" y2="3278.58" gradientTransform="translate(-62934.52 -918681.5) scale(208.61 280.25)" gradientUnits="userSpaceOnUse"><stop offset="0" stop-color="#831f5f"/><stop offset="1" stop-color="#2bb8eb"/></linearGradient></defs><g id="Layer_2" data-name="Layer 2"><g id="Layer_1-2" data-name="Layer 1"><g class="cls-2"><rect class="cls-3" x="258.62" y="59.64" width="541.77" height="159.36"/></g><path class="cls-4" d="M441.66,103.06a41.91,41.91,0,0,0-21.5-5.54,42.36,42.36,0,0,0-21.58,5.54,40.82,40.82,0,0,0-15.11,15.12,42.53,42.53,0,0,0-5.55,21.73,43.19,43.19,0,0,0,5.4,21.58,39.88,39.88,0,0,0,35.62,20.66,38.57,38.57,0,0,0,19.83-5.09,37.62,37.62,0,0,0,11.78-10.76v9.32a5.51,5.51,0,0,0,1.67,4.18,6.49,6.49,0,0,0,8.51,0,5.54,5.54,0,0,0,1.67-4.18V139.91a43.64,43.64,0,0,0-5.7-21.73A41.08,41.08,0,0,0,441.66,103.06Zm5.17,53a29.78,29.78,0,0,1-10.95,11.32,30.76,30.76,0,0,1-42.46-11.32,34.06,34.06,0,0,1,0-32.44,31,31,0,0,1,11.09-11.32,31.52,31.52,0,0,1,31.37,0,30.58,30.58,0,0,1,10.95,11.32,34.66,34.66,0,0,1,0,32.44Z"/><path class="cls-4" d="M566.5,98.73c-3.35-1.41-5.77-.5-7.3,2.74L530.93,163.8l-29.61-62.48a5.26,5.26,0,0,0-3.05-3,5.53,5.53,0,0,0-4.25.37,5.61,5.61,0,0,0-3,3,5.31,5.31,0,0,0,.3,4.26l33.89,70.19a.44.44,0,0,0,.08.11l-15.12,33.32q-2.28,5,2.89,7.29a7.26,7.26,0,0,0,2.73.61q2.88,0,4.4-3.49l49.23-108.18C570.91,102.53,569.94,100.15,566.5,98.73Z"/><path class="cls-4" d="M622.74,169.84h-3.8c-2.74,0-5-1.36-6.76-4.1s-2.66-6.28-2.66-10.64V68.5a5.49,5.49,0,0,0-5.77-5.78A5.48,5.48,0,0,0,598,68.5v86.6a33,33,0,0,0,2.66,13.68,22,22,0,0,0,7.44,9.27,18.5,18.5,0,0,0,10.87,3.34h2a7.43,7.43,0,0,0,4.93-1.59,5.2,5.2,0,0,0,1.9-4.18,6.14,6.14,0,0,0-1.37-4.18A4.57,4.57,0,0,0,622.74,169.84Z"/><path class="cls-4" d="M668.49,65.92a8.57,8.57,0,0,0-5.84,2.2,7.56,7.56,0,0,0-2.51,6,8.07,8.07,0,0,0,2.43,5.93,7.88,7.88,0,0,0,5.77,2.43,8.3,8.3,0,0,0,8.36-8.36,7.59,7.59,0,0,0-2.51-6A8.38,8.38,0,0,0,668.49,65.92Z"/><path class="cls-4" d="M668.49,98.28a5.49,5.49,0,0,0-5.92,5.92v71.27a5.49,5.49,0,0,0,5.92,5.92,5.66,5.66,0,0,0,4.18-1.59,5.84,5.84,0,0,0,1.6-4.33V104.2a5.84,5.84,0,0,0-1.6-4.33A5.66,5.66,0,0,0,668.49,98.28Z"/><path class="cls-4" d="M794.7,118.18a41.16,41.16,0,0,0-15-15.12,44.64,44.64,0,0,0-43.08,0,40.92,40.92,0,0,0-15.12,15.12,42.63,42.63,0,0,0-5.54,21.73,43.18,43.18,0,0,0,5.39,21.58,39.88,39.88,0,0,0,35.63,20.66,38.6,38.6,0,0,0,19.83-5.09,37.69,37.69,0,0,0,11.77-10.76v9.32a5.51,5.51,0,0,0,1.68,4.18,6.48,6.48,0,0,0,8.5,0,5.51,5.51,0,0,0,1.68-4.18V139.91A43.85,43.85,0,0,0,794.7,118.18Zm-9.88,37.91a29.69,29.69,0,0,1-10.94,11.32,30.76,30.76,0,0,1-42.46-11.32,34.06,34.06,0,0,1,0-32.44,30.8,30.8,0,0,1,11.09-11.32,31.52,31.52,0,0,1,31.37,0,30.48,30.48,0,0,1,10.94,11.32,34.66,34.66,0,0,1,0,32.44Z"/><g class="cls-5"><rect class="cls-6" x="258.62" y="59.64" width="541.77" height="159.36"/></g><g class="cls-7"><rect class="cls-3" x="258.62" y="59.64" width="541.77" height="159.36"/></g><g class="cls-8"><rect class="cls-9" x="258.62" y="59.05" width="541.77" height="159.36"/></g><g class="cls-10"><rect class="cls-3" x="258.62" y="59.64" width="541.77" height="159.36"/></g><g class="cls-11"><rect class="cls-3" x="258.62" y="59.64" width="541.77" height="159.36"/></g><g class="cls-12"><rect class="cls-6" x="258.62" y="59.64" width="541.77" height="159.36"/></g></g><g id="Layer_2-2" data-name="Layer 2"><g id="Layer_2-3" data-name="Layer 2"><g id="Layer_1-2-2" data-name="Layer 1-2"><path id="Path_1829" data-name="Path 1829" class="cls-13" d="M96.34,108.37q2.34,4.08,4.7,7.93a3.25,3.25,0,0,0,.35.63c.84,1.48,1.75,2.88,2.74,4.36a6.46,6.46,0,0,0,.56.84A57,57,0,0,0,139.16,145a54,54,0,0,0,12.22,1.34,57.23,57.23,0,0,0,0-114.46h0A55.49,55.49,0,0,0,139,33.23a57,57,0,0,0-33.42,21.56c-1.65,2.67-3.69,6.06-6,10.05-.24.41-1.77,3.11-3.37,6h0l-.06-.15c-.07-.21-.21-.42-.28-.63A281.82,281.82,0,0,1,83,27.35v-.07c-.36-2.12-.8-4-1.2-5.45-.86-3.15-1.36-4.95-2.62-7a16.53,16.53,0,0,0-3.55-4,54.81,54.81,0,0,0-64.54-.64v.07c-1.26.84-2.45,1.83-3.65,2.81,0,.07,0,.07-.06.07s-.15.08-.22.21-.28.21-.35.35l-1.19,1L3.87,16.46A17,17,0,0,0,0,27.28,14.71,14.71,0,0,0,.07,29c.14.91.28,1.76.49,2.6,1.2,6,2.53,11.94,4,17.77v.14a291.91,291.91,0,0,0,11,33.07l.07.07a260.36,260.36,0,0,0,11.38,25,282,282,0,0,0,38,56.25,290.12,290.12,0,0,0,.55,91.64,19.28,19.28,0,0,0,.43,2.81,27.17,27.17,0,0,0,7.51,13.83A27.6,27.6,0,0,0,84.76,279,26.53,26.53,0,0,0,93,280.28a25.85,25.85,0,0,0,7-1l5.83-2.18c.07-.07.14-.14.21-.14l36.73-14.11a28.88,28.88,0,0,0,2.74-1,27.5,27.5,0,0,0,16.5-23.6,9,9,0,0,0,.06-1.47v-.23A27.52,27.52,0,0,0,150,213.77a31.8,31.8,0,0,1-2.88-1.68c-.07-.07-.21-.07-.28-.14A285.31,285.31,0,0,1,82,158.86a277.71,277.71,0,0,1,14.25-50.62Zm17.79-37.88c.58-1.09,1.15-2.18,1.81-3.26a41.61,41.61,0,1,1,35.07,64,36.6,36.6,0,0,1-10.81-1.43c-16.94-5-26.25-22-31.93-32.31-1.8-3.28-3.11-6.08-3.93-7.94,3-6.53,6.3-12.83,9.78-19.06Zm6.08,142.65q10,6.84,20.65,12.85a8.84,8.84,0,0,1,2.17,1.2,10.78,10.78,0,0,1,4.7,9,11,11,0,0,1-6.46,10,9.19,9.19,0,0,0-1,.36l-19.94,7.65-5.06,2-19.8,7.58a5.37,5.37,0,0,1-.56.21,11.76,11.76,0,0,1-3.86.7,10.92,10.92,0,0,1-10.6-8.5,2.28,2.28,0,0,1-.14-.77C79.13,247,78.08,238.63,77.59,230c-.35-5.82-.56-11.73-.56-17.69a291.52,291.52,0,0,1,1.9-33.43,284.49,284.49,0,0,0,41.28,34.27Zm-51.33-69.8h0A279,279,0,0,1,46.27,110V110c-3.16-5.26-6.11-10.67-8.78-16.22v-.11a280,280,0,0,1-19.1-49.36c-.28-1.05-.57-2.11-.84-3.09-.5-1.83-.92-3.58-1.34-5.41a6.48,6.48,0,0,1-.42-1.61,15.07,15.07,0,0,1-.14-1.76,10.77,10.77,0,0,1,3.44-7.93c.41-.35.83-.68,1.27-1,.07-.14.13-.14.21-.14a36.74,36.74,0,0,1,10.74-5.48A38.9,38.9,0,0,1,43.18,16a40.6,40.6,0,0,1,7.93.77h.07a38.13,38.13,0,0,1,7.16,2.32,5.14,5.14,0,0,1,1.62.77c.07-.07.14,0,.21.07a10.92,10.92,0,0,1,4.92,5.76v.21c.2.74.36,1.49.49,2.25,0,.06.07.14.07.21v.28c.35,1.47.7,3,1,4.56.7,2.88,1.41,5.69,2.18,8.57v.07a276.93,276.93,0,0,0,9.76,29.42q3.48,9.06,7.58,17.7c.14.35.28.63.42.91a287.87,287.87,0,0,0-17.76,53.44Z"/></g></g></g></g></svg>